<svg width="9" height="7" viewBox="0 0 9 7" fill="none" xmlns="http://www.w3.org/2000/svg">
<path d="M8.93373 5.35713C8.93373 5.42856 8.89801 5.50892 8.84444 5.56249L8.39801 6.00892C8.34444 6.06249 8.26408 6.09821 8.19265 6.09821C8.12123 6.09821 8.04087 6.06249 7.9873 6.00892L4.47837 2.49999L0.969439 6.00892C0.915867 6.06249 0.83551 6.09821 0.764082 6.09821C0.683725 6.09821 0.612296 6.06249 0.558725 6.00892L0.112296 5.56249C0.0587246 5.50892 0.0230103 5.42856 0.0230103 5.35713C0.0230103 5.28571 0.0587246 5.20535 0.112296 5.15178L4.27301 0.991063C4.32658 0.937491 4.40694 0.901777 4.47837 0.901777C4.5498 0.901777 4.63015 0.937491 4.68372 0.991063L8.84444 5.15178C8.89801 5.20535 8.93373 5.28571 8.93373 5.35713Z" fill="white"/>
</svg>
